#!OML:ASF H:\Terrain\Patient Classification 1\Terrain2\Thursday\justin.ASF
:FULLY-SPECIFIED
:DEGREES
2686
root 9.69225 17.1916 -21.3906 -543.612 -63.411 -177.148
lowerback 7.65468 -0.501138 1.59052
upperback 4.23207 -0.794378 3.73196
thorax 0.118449 -0.521396 3.01658
lowerneck -11.9363 1.67104 -7.88047
upperneck 39.7334 1.11184 2.39296
head 16.0831 -1.26116 2.39584
rclavicle 4.19436e-014 -2.38542e-014
rhumerus -31.0554 -14.717 -76.7926
rradius 22.9798
rwrist -4.57369
rhand -24.3539 11.8001
rfingers 7.12502
rthumb 2.13554 -18.169
lclavicle 4.19436e-014 -2.38542e-014
lhumerus -34.0435 6.49616 81.7649
lradius 37.2183
lwrist 4.87931
lhand -19.421 21.1324
lfingers 7.12502
lthumb 6.89877 51
rfemur -9.5031 10.6642 16.7978
rtibia 33.15
rfoot -20.5686 15.3216
rtoes 9.79194
lfemur -11.3384 -9.26251 -14.9869
ltibia 30.4124
lfoot -6.802 -30.6506
ltoes 24.9611
2687
root 9.71861 17.199 -21.4431 -543.668 -64.2418 -177.128
lowerback 7.82457 -0.381951 1.55293
upperback 4.21093 -0.628605 3.7559
thorax -0.00339577 -0.438303 3.05308
lowerneck -12.1411 1.66641 -8.01968
upperneck 39.8673 1.15092 2.52325
head 16.1987 -1.24282 2.49256
rclavicle 9.74045e-015 -2.38542e-015
rhumerus -30.9431 -14.1002 -76.9583
rradius 23.0084
rwrist -4.79063
rhand -24.2431 11.3508
rfingers 7.12502
rthumb 2.2426 -18.6172
lclavicle 9.74045e-015 -2.38542e-015
lhumerus -33.9113 6.30683 81.7525
lradius 37.079
lwrist 5.4257
lhand -19.9976 21.0286
lfingers 7.12502
lthumb 6.34216 50.9137
rfemur -9.06571 10.1316 16.9954
rtibia 32.647
rfoot -20.3758 15.2422
rtoes 10.9541
lfemur -11.51 -9.58684 -14.8068
ltibia 30.4648
lfoot -7.77518 -30.9872
ltoes 22.6804
2688
root 9.74105 17.2097 -21.4919 -544.689 -64.9052 -175.926
lowerback 7.94673 -0.186576 2.21568
upperback 4.10329 -0.314185 3.85382
thorax -0.1964 -0.272333 2.75907
lowerneck -12.2596 1.63278 -7.84896
upperneck 40.0529 1.13823 2.38018
head 16.3328 -1.24225 2.40404
rclavicle 5.1684e-015 3.02153e-014
rhumerus -31.0108 -14.2942 -76.8023
rradius 23.032
rwrist -4.53479
rhand -24.0002 10.8945
rfingers 7.12502
rthumb 2.47714 -19.0709
lclavicle 5.1684e-015 3.02153e-014
lhumerus -33.9878 6.44365 81.6553
lradius 37.0778
lwrist 5.43952
lhand -20.2092 20.2691
lfingers 7.12502
lthumb 6.13787 50.1602
rfemur -8.81044 9.80208 17.7189
rtibia 32.263
rfoot -20.104 15.2589
rtoes 12.0486
lfemur -11.7523 -9.78572 -14.0732
ltibia 30.4815
lfoot -7.88392 -31.2266
ltoes 22.0223
2689
root 9.75752 17.2216 -21.5428 -545.864 -65.425 -174.545
lowerback 7.96192 0.0452589 3.02377
upperback 4.03689 0.0500712 3.96105
thorax -0.28135 -0.0823567 2.38725
lowerneck -12.3968 1.66327 -7.36996
upperneck 40.1859 1.25991 1.95202
head 16.4423 -1.17224 2.15555
rclavicle -1.45113e-014 7.15625e-015
rhumerus -31.0397 -14.6621 -76.5514
rradius 23.0915
rwrist -4.19378
rhand -23.7838 10.6043
rfingers 7.12502
rthumb 2.68616 -19.3585
lclavicle -1.45113e-014 7.15625e-015
lhumerus -34.1071 6.49576 81.5874
lradius 37.1231
lwrist 5.24048
lhand -19.8615 19.7522
lfingers 7.12502
lthumb 6.47349 49.6333
rfemur -8.6314 9.68723 18.5198
rtibia 31.9714
rfoot -20.1417 14.901
rtoes 12.2151
lfemur -11.9281 -10.1678 -13.2973
ltibia 30.5098
lfoot -8.02787 -31.0213
ltoes 21.5696
2690
root 9.77971 17.2259 -21.5933 -546.714 -65.9673 -173.461
lowerback 7.8596 0.218659 3.48968
upperback 4.01794 0.302004 4.13775
thorax -0.24538 0.0453436 2.28893
lowerneck -12.4759 1.73057 -6.97703
upperneck 40.0841 1.52677 1.4222
head 16.4063 -1.05271 1.8991
rclavicle -5.68524e-014 -2.8625e-014
rhumerus -30.7884 -14.5532 -76.3864
rradius 22.9543
rwrist -4.09498
rhand -23.8097 10.6973
rfingers 7.12502
rthumb 2.66117 -19.2659
lclavicle -5.68524e-014 -2.8625e-014
lhumerus -34.3251 6.16692 81.7237
lradius 37.4478
lwrist 5.66109
lhand -19.8778 19.9763
lfingers 7.12502
lthumb 6.45779 49.8578
rfemur -8.60263 9.34524 19.1332
rtibia 31.721
rfoot -20.2014 14.3762
rtoes 11.0749
lfemur -12.2349 -10.4459 -12.6622
ltibia 30.5744
lfoot -9.06673 -30.9987
ltoes 18.3872
2691
root 9.80785 17.2299 -21.6405 -547.078 -66.5055 -173
lowerback 7.92332 0.359067 3.63256
upperback 4.00267 0.500995 4.24425
thorax -0.298037 0.143716 2.30361
lowerneck -12.49 1.75662 -6.99645
upperneck 39.9071 1.70415 1.25245
head 16.31 -0.980542 1.86006
rclavicle 2.68359e-014 4.92986e-014
rhumerus -30.4671 -14.207 -76.3314
rradius 22.8046
rwrist -4.11273
rhand -23.9144 10.7997
rfingers 7.12502
rthumb 2.56006 -19.1647
lclavicle 2.68359e-014 4.92986e-014
lhumerus -34.5017 6.05387 81.7407
lradius 37.6296
lwrist 5.98289
lhand -20.1223 20.342
lfingers 7.12502
lthumb 6.22173 50.2306
rfemur -8.53547 8.86718 19.4375
rtibia 31.5007
rfoot -19.9767 14.2196
rtoes 10.4769
lfemur -12.481 -10.8044 -12.3131
ltibia 30.6814
lfoot -9.77179 -30.9072
ltoes 15.738
2692
root 9.83494 17.2397 -21.6903 -547.436 -67.0383 -172.644
lowerback 8.10977 0.557585 3.84661
upperback 3.9529 0.796529 4.25246
thorax -0.452867 0.292957 2.16727
lowerneck -12.3789 1.70337 -7.16795
upperneck 39.7544 1.67364 1.35323
head 16.2003 -0.983426 1.93145
rclavicle 9.83984e-014 1.59028e-015
rhumerus -30.3857 -14.0784 -76.2522
rradius 22.8276
rwrist -4.31135
rhand -23.9802 10.7606
rfingers 7.12502
rthumb 2.49653 -19.2046
lclavicle 9.83984e-014 1.59028e-015
lhumerus -34.6866 6.09371 81.5993
lradius 37.6814
lwrist 5.95133
lhand -20.0776 20.3612
lfingers 7.12502
lthumb 6.26488 50.2485
rfemur -8.36145 8.41838 19.6856
rtibia 31.2777
rfoot -19.6445 14.491
rtoes 11.5015
lfemur -12.6398 -11.3733 -12.024
ltibia 30.8443
lfoot -7.62468 -30.5594
ltoes 20.8148
2693
root 9.85657 17.2386 -21.746 -548.847 -67.5795 -171.068
lowerback 8.10551 0.779968 4.47605
upperback 3.88801 1.13568 4.40133
thorax -0.508195 0.464657 1.94142
lowerneck -12.2957 1.63602 -7.13511
upperneck 39.6711 1.60955 1.32102
head 16.1417 -0.991906 1.90321
rclavicle 1.31198e-014 -1.90833e-014
rhumerus -30.4036 -13.882 -76.1642
rradius 22.9143
rwrist -4.99087
rhand -24.3781 11.1351
rfingers 7.12502
rthumb 2.11223 -18.8342
lclavicle 1.31198e-014 -1.90833e-014
lhumerus -34.8594 6.30066 81.515
lradius 37.7601
lwrist 5.74916
lhand -19.6781 19.86
lfingers 7.12502
lthumb 6.65056 49.7356
rfemur -8.21097 7.71692 20.428
rtibia 30.9551
rfoot -19.4665 14.7678
rtoes 12.0631
lfemur -12.9335 -11.8719 -11.2419
ltibia 31.086
lfoot -4.20728 -30.0173
ltoes 28.7959
2694
root 9.8755 17.239 -21.7974 -550.447 -68.0724 -169.143
lowerback 7.92221 0.96705 5.21455
upperback 3.82345 1.41984 4.56366
thorax -0.455581 0.610469 1.67685
lowerneck -12.3452 1.60545 -6.93143
upperneck 39.596 1.60599 1.19873
head 16.1194 -0.961045 1.81692
rclavicle 1.68967e-014 -5.40694e-014
rhumerus -30.3213 -13.6453 -76.0908
rradius 23.0441
rwrist -5.24075
rhand -24.6081 11.1659
rfingers 7.12502
rthumb 1.89004 -18.8054
lclavicle 1.68967e-014 -5.40694e-014
lhumerus -34.9848 6.61303 81.3782
lradius 37.7763
lwrist 5.69811
lhand -19.3621 19.242
lfingers 7.12502
lthumb 6.95565 49.1077
rfemur -8.18436 7.08801 21.2473
rtibia 30.565
rfoot -19.2734 14.9821
rtoes 12.6518
lfemur -13.4051 -12.3746 -10.3775
ltibia 31.3527
lfoot -11.3508 -29.886
ltoes 12.5474
2695
root 9.89452 17.2574 -21.8403 -551.584 -68.5413 -167.683
lowerback 7.73493 1.14301 5.90332
upperback 3.75858 1.68768 4.58601
thorax -0.393199 0.751681 1.29877
lowerneck -12.3355 1.59622 -6.81432
upperneck 39.3679 1.59531 1.27321
head 15.9968 -0.908136 1.83015
rclavicle -2.32578e-014 -3.65764e-014
rhumerus -30.1613 -13.6286 -75.9618
rradius 23.1068
rwrist -4.72666
rhand -24.0826 10.5994
rfingers 7.12502
rthumb 2.39762 -19.3669
lclavicle -2.32578e-014 -3.65764e-014
lhumerus -35.1532 6.73506 81.1538
lradius 37.8991
lwrist 5.73649
lhand -19.6867 19.4696
lfingers 7.12502
lthumb 6.64226 49.3454
rfemur -8.25755 6.70689 21.7861
rtibia 30.2753
rfoot -18.9097 15.3637
rtoes 14.6361
lfemur -13.9261 -12.772 -9.74657
ltibia 31.5262
lfoot -10.4985 -29.4202
ltoes 14.6086
2696
root 9.91757 17.273 -21.8839 -551.685 -69.138 -167.425
lowerback 7.6578 1.31469 6.05971
upperback 3.72861 1.92688 4.52575
thorax -0.368886 0.876192 1.13259
lowerneck -12.3299 1.62197 -6.67324
upperneck 39.1095 1.68613 1.21487
head 15.8587 -0.826083 1.79734
rclavicle -3.53837e-014 -4.29375e-014
rhumerus -29.9226 -13.5993 -75.7694
rradius 23.0967
rwrist -4.32245
rhand -23.606 10.3583
rfingers 7.12502
rthumb 2.85783 -19.6023
lclavicle -3.53837e-014 -4.29375e-014
lhumerus -34.9961 7.34026 81.0909
lradius 37.707
lwrist 5.31562
lhand -20.3043 19.7736
lfingers 7.12502
lthumb 6.04601 49.6673
rfemur -8.3671 6.30482 21.8417
rtibia 30.2097
rfoot -18.7899 15.5218
rtoes 15.5539
lfemur -14.3001 -13.128 -9.61932
ltibia 31.5375
lfoot -8.90241 -29.035
ltoes 18.7816
